<?xml version="1.0" encoding="iso-8859-1"?>
<!-- Generator: Adobe Illustrator 19.0.0, SVG Export Plug-In . SVG Version: 6.00 Build 0)  -->
<svg version="1.1" id="Capa_1" xmlns="http://www.w3.org/2000/svg" xmlns:xlink="http://www.w3.org/1999/xlink" x="0px" y="0px"
	 viewBox="0 0 511.47 511.47" style="enable-background:new 0 0 511.47 511.47;" xml:space="preserve">
<polygon style="fill:#94C1FF;" points="19.978,35.963 51.944,3.964 347.638,3.964 395.589,51.946 395.589,475.507 363.622,508.848 
	19.978,508.848 "/>
<polygon style="fill:#D7E9FF;" points="395.589,475.507 51.944,475.507 51.944,3.996 347.638,3.996 395.589,51.946 "/>
<polygon style="fill:#FFFFFF;" points="395.589,59.938 339.646,59.938 339.646,3.996 347.638,3.996 395.589,51.946 "/>
<path style="fill:#5C9EFF;" d="M187.804,111.884c0,24.271-19.679,43.954-43.954,43.954c-24.276,0-43.955-19.683-43.955-43.954
	s19.679-43.955,43.955-43.955C168.125,67.93,187.804,87.613,187.804,111.884z"/>
<g>
	<polygon style="fill:#D7E9FF;" points="159.833,111.884 181.81,134.002 153.964,155.839 122.372,149.345 	"/>
	<polygon style="fill:#D7E9FF;" points="123.87,115.881 105.834,133.916 123.87,147.847 139.854,131.864 	"/>
</g>
<path style="fill:#FFFFFF;" d="M139.854,91.905c0,4.417-3.578,7.992-7.992,7.992c-4.414,0-7.992-3.575-7.992-7.992
	s3.578-7.992,7.992-7.992S139.854,87.488,139.854,91.905z"/>
<polygon style="fill:#D7E9FF;" points="475.506,403.583 475.506,411.574 483.498,435.549 467.514,459.525 451.531,435.549 
	459.522,411.574 459.522,403.583 "/>
<polygon style="fill:#FFFFFF;" points="467.514,443.541 455.082,424.896 451.531,435.549 467.514,459.525 483.498,435.549 
	479.946,424.896 "/>
<polygon style="fill:#5C9EFF;" points="483.498,355.632 483.498,403.583 475.506,403.583 459.522,403.583 451.531,403.583 
	451.531,355.632 "/>
<rect x="451.535" y="339.645" style="fill:#94C1FF;" width="31.967" height="15.984"/>
<path style="fill:#5C9EFF;" d="M491.489,139.855l-7.991,199.793h-31.967l-7.992-199.793c0-17.661,6.313-31.967,23.976-31.967h0.796
	C485.339,108.365,491.489,122.436,491.489,139.855z"/>
<path style="fill:#94C1FF;" d="M459.522,339.648l-7.991-199.793c0-16.202,5.432-29.438,19.948-31.537
	c-1.046-0.156-2.021-0.398-3.169-0.43h-0.796c-17.662,0-23.976,14.306-23.976,31.967l7.992,199.793v15.984v47.95h7.991v-47.95
	v-15.984H459.522z"/>
<path style="fill:#2287FF;" d="M475.506,339.648l7.992-199.793c0-16.202-5.433-29.438-19.948-31.537
	c1.046-0.156,2.021-0.398,3.168-0.43h0.797c17.661,0,23.975,14.306,23.975,31.967l-7.991,199.793v15.984v47.95h-7.992v-47.95
	v-15.984H475.506z"/>
<rect x="459.525" y="403.585" style="fill:#94C1FF;" width="15.983" height="7.991"/>
<rect x="51.945" y="3.996" style="fill:#FFFFFF;" width="7.992" height="471.51"/>
<g>
	<rect x="387.595" y="59.935" style="fill:#94C1FF;" width="7.992" height="415.57"/>
	<polygon style="fill:#94C1FF;" points="51.944,475.507 19.978,507.475 19.978,35.963 51.944,3.964 	"/>
</g>
<rect x="451.535" y="339.645" style="fill:#D7E9FF;" width="7.991" height="15.984"/>
<rect x="475.505" y="339.645" style="fill:#5C9EFF;" width="7.992" height="15.984"/>
<g>
	<path style="fill:#116FFF;" d="M347.638,423.562H235.755c-2.208,0-3.996-1.787-3.996-3.996s1.787-3.996,3.996-3.996h111.884
		c2.208,0,3.995,1.787,3.995,3.996S349.846,423.562,347.638,423.562z"/>
	<path style="fill:#116FFF;" d="M299.688,431.553c-0.391,0-0.781-0.055-1.163-0.172c-1.678-0.515-2.833-2.067-2.833-3.824v-14.594
		c-5.713,4.909-13.97,10.599-21.493,10.599c-4.332,0-10.146-1.85-13.279-10.646c-0.737-2.084,0.347-4.37,2.427-5.104
		c2.064-0.765,4.359,0.344,5.108,2.42c1.889,5.338,4.589,5.338,5.744,5.338c7.663,0,19.917-11.52,22.352-14.461
		c1.077-1.296,2.888-1.812,4.464-1.249c1.576,0.569,2.67,2.036,2.67,3.723v10.809l8.662-13.025c0.734-1.108,1.982-1.779,3.325-1.779
		h15.983c2.209,0,3.996,1.787,3.996,3.996c0,2.208-1.787,3.995-3.996,3.995h-13.846l-14.797,22.204
		C302.248,430.914,300.999,431.553,299.688,431.553z"/>
	<path style="fill:#116FFF;" d="M264.685,415.57c-0.195,0-0.398-0.016-0.602-0.047c-1.459-0.219-2.673-1.225-3.164-2.614
		c-2.974-8.39-2.072-17.81,2.298-23.991c3.598-5.096,9.062-7.031,14.01-5.018c1.732,0.694,2.996,2.1,3.512,3.941
		c0.905,3.254,0.094,8.904-12.862,26.137C267.112,414.985,265.926,415.57,264.685,415.57z M272.7,391.15
		c-0.983,0.227-2.029,1.069-2.95,2.373c-1.271,1.795-2.239,4.456-2.513,7.578C270.842,395.676,272.201,392.672,272.7,391.15z"/>
	<path style="fill:#116FFF;" d="M251.738,431.553c-0.937,0-1.877-0.327-2.634-0.991c-1.658-1.459-1.826-3.98-0.37-5.643
		c0.027-0.031,2.841-3.238,6.513-7.844c1.927-2.333,4.124-5.072,6.243-7.897c1.323-1.756,3.828-2.131,5.592-0.804
		c1.764,1.326,2.123,3.832,0.796,5.596c-2.192,2.935-4.476,5.783-6.427,8.14c-3.781,4.745-6.708,8.085-6.708,8.085
		C253.95,431.093,252.846,431.553,251.738,431.553z"/>
	<path style="fill:#116FFF;" d="M467.514,463.52c-1.288,0-2.561-0.624-3.325-1.779l-15.983-23.976
		c-0.687-1.021-0.858-2.31-0.468-3.48l7.788-23.358v-7.344c0-2.209,1.787-3.996,3.996-3.996s3.996,1.787,3.996,3.996v7.991
		c0,0.43-0.07,0.859-0.203,1.265l-7.375,22.118l14.898,22.352c1.226,1.834,0.734,4.315-1.107,5.541
		C469.044,463.302,468.279,463.52,467.514,463.52z"/>
	<path style="fill:#116FFF;" d="M467.514,463.52c-0.766,0-1.53-0.218-2.217-0.671c-1.842-1.226-2.334-3.707-1.108-5.541
		l14.899-22.352l-7.376-22.118c-0.132-0.405-0.202-0.835-0.202-1.265v-7.991c0-2.209,1.787-3.996,3.995-3.996
		c2.209,0,3.996,1.787,3.996,3.996v7.344l7.789,23.358c0.39,1.171,0.218,2.459-0.469,3.48l-15.983,23.976
		C470.074,462.896,468.801,463.52,467.514,463.52z"/>
	<path style="fill:#116FFF;" d="M483.498,343.644h-31.967c-2.209,0-3.996-1.787-3.996-3.996c0-2.208,1.787-3.995,3.996-3.995h31.967
		c2.208,0,3.995,1.787,3.995,3.995C487.493,341.857,485.706,343.644,483.498,343.644z"/>
	<path style="fill:#116FFF;" d="M451.531,343.644c-2.139,0-3.902-1.686-3.996-3.84l-7.991-199.793
		c-0.086-2.201,1.631-4.058,3.839-4.152c2.154-0.125,4.059,1.631,4.152,3.84l7.991,199.793c0.086,2.2-1.631,4.058-3.84,4.151
		C451.639,343.644,451.578,343.644,451.531,343.644z"/>
	<path style="fill:#116FFF;" d="M483.498,343.644c-0.047,0-0.109,0-0.156,0c-2.209-0.094-3.926-1.951-3.84-4.151l7.991-199.793
		c0.094-2.208,1.904-3.957,4.152-3.84c2.209,0.094,3.926,1.951,3.84,4.152l-7.992,199.793
		C487.4,341.959,485.635,343.644,483.498,343.644z"/>
	<path style="fill:#116FFF;" d="M491.489,143.851c-2.208,0-3.996-1.787-3.996-3.996c0-18.2-6.492-27.612-19.292-27.971
		c-2.201-0.062-3.941-1.904-3.887-4.105c0.062-2.208,1.834-3.801,4.113-3.886c17.192,0.484,27.058,13.587,27.058,35.962
		C495.485,142.064,493.698,143.851,491.489,143.851z"/>
	<path style="fill:#116FFF;" d="M443.539,143.851c-2.208,0-3.995-1.787-3.995-3.996c0-22.851,10.191-35.962,27.971-35.962
		c2.209,0,3.996,1.787,3.996,3.996s-1.787,3.996-3.996,3.996c-13.252,0-19.979,9.412-19.979,27.971
		C447.535,142.064,445.748,143.851,443.539,143.851z"/>
	<path style="fill:#116FFF;" d="M475.506,111.884h-15.983c-2.209,0-3.996-1.787-3.996-3.996c0-2.208,1.787-3.996,3.996-3.996h15.983
		c2.209,0,3.996,1.787,3.996,3.996S477.714,111.884,475.506,111.884z"/>
	<path style="fill:#116FFF;" d="M467.514,247.744c-2.209,0-3.996-1.787-3.996-3.996V123.872c0-2.208,1.787-3.996,3.996-3.996
		s3.996,1.787,3.996,3.996v119.876C471.51,245.957,469.723,247.744,467.514,247.744z"/>
	<path style="fill:#116FFF;" d="M483.498,359.628h-31.967c-2.209,0-3.996-1.787-3.996-3.995c0-2.209,1.787-3.996,3.996-3.996h31.967
		c2.208,0,3.995,1.787,3.995,3.996C487.493,357.84,485.706,359.628,483.498,359.628z"/>
	<path style="fill:#116FFF;" d="M483.498,359.628c-2.209,0-3.996-1.787-3.996-3.995v-15.984c0-2.208,1.787-3.995,3.996-3.995
		c2.208,0,3.995,1.787,3.995,3.995v15.984C487.493,357.84,485.706,359.628,483.498,359.628z"/>
	<path style="fill:#116FFF;" d="M451.531,359.628c-2.209,0-3.996-1.787-3.996-3.995v-15.984c0-2.208,1.787-3.995,3.996-3.995
		c2.208,0,3.995,1.787,3.995,3.995v15.984C455.526,357.84,453.739,359.628,451.531,359.628z"/>
	<path style="fill:#116FFF;" d="M483.498,407.578h-31.967c-2.209,0-3.996-1.787-3.996-3.995c0-2.209,1.787-3.996,3.996-3.996h31.967
		c2.208,0,3.995,1.787,3.995,3.996C487.493,405.791,485.706,407.578,483.498,407.578z"/>
	<path style="fill:#116FFF;" d="M483.498,407.578c-2.209,0-3.996-1.787-3.996-3.995v-47.95c0-2.209,1.787-3.996,3.996-3.996
		c2.208,0,3.995,1.787,3.995,3.996v47.95C487.493,405.791,485.706,407.578,483.498,407.578z"/>
	<path style="fill:#116FFF;" d="M451.531,407.578c-2.209,0-3.996-1.787-3.996-3.995v-47.95c0-2.209,1.787-3.996,3.996-3.996
		c2.208,0,3.995,1.787,3.995,3.996v47.95C455.526,405.791,453.739,407.578,451.531,407.578z"/>
	<path style="fill:#116FFF;" d="M395.589,479.504c-2.209,0-3.996-1.787-3.996-3.996V51.946c0-2.208,1.787-3.996,3.996-3.996
		s3.996,1.787,3.996,3.996v423.561C399.585,477.716,397.797,479.504,395.589,479.504z"/>
	<path style="fill:#116FFF;" d="M395.589,479.504H51.944c-2.208,0-3.996-1.787-3.996-3.996c0-2.208,1.787-3.995,3.996-3.995h343.644
		c2.209,0,3.996,1.787,3.996,3.995C399.585,477.716,397.797,479.504,395.589,479.504z"/>
	<path style="fill:#116FFF;" d="M51.944,479.504c-2.208,0-3.996-1.787-3.996-3.996V3.996C47.948,1.788,49.735,0,51.944,0
		s3.996,1.788,3.996,3.996v471.512C55.941,477.716,54.153,479.504,51.944,479.504z"/>
	<path style="fill:#116FFF;" d="M347.638,7.992H51.944c-2.208,0-3.996-1.787-3.996-3.996C47.948,1.788,49.735,0,51.944,0h295.694
		c2.208,0,3.995,1.788,3.995,3.996C351.633,6.205,349.846,7.992,347.638,7.992z"/>
	<path style="fill:#116FFF;" d="M395.589,55.942c-1.022,0-2.045-0.39-2.825-1.17l-47.95-47.951c-1.561-1.561-1.561-4.089,0-5.65
		s4.09-1.561,5.65,0l47.95,47.951c1.561,1.561,1.561,4.089,0,5.65C397.633,55.552,396.611,55.942,395.589,55.942z"/>
	<path style="fill:#116FFF;" d="M339.646,63.934c-2.208,0-3.995-1.787-3.995-3.996V19.979c0-2.208,1.787-3.996,3.995-3.996
		c2.209,0,3.996,1.788,3.996,3.996v39.959C343.642,62.147,341.855,63.934,339.646,63.934z"/>
	<path style="fill:#116FFF;" d="M379.605,63.934h-39.959c-2.208,0-3.995-1.787-3.995-3.996s1.787-3.996,3.995-3.996h39.959
		c2.208,0,3.996,1.787,3.996,3.996S381.813,63.934,379.605,63.934z"/>
	<path style="fill:#116FFF;" d="M347.638,215.777H99.895c-2.208,0-3.996-1.787-3.996-3.996c0-2.208,1.787-3.996,3.996-3.996h247.743
		c2.208,0,3.995,1.788,3.995,3.996C351.633,213.99,349.846,215.777,347.638,215.777z"/>
	<path style="fill:#116FFF;" d="M347.638,247.744H99.895c-2.208,0-3.996-1.787-3.996-3.996c0-2.208,1.787-3.996,3.996-3.996h247.743
		c2.208,0,3.995,1.787,3.995,3.996S349.846,247.744,347.638,247.744z"/>
	<path style="fill:#116FFF;" d="M347.638,279.711H99.895c-2.208,0-3.996-1.787-3.996-3.996c0-2.208,1.787-3.996,3.996-3.996h247.743
		c2.208,0,3.995,1.788,3.995,3.996C351.633,277.923,349.846,279.711,347.638,279.711z"/>
	<path style="fill:#116FFF;" d="M347.638,311.677H99.895c-2.208,0-3.996-1.787-3.996-3.996c0-2.208,1.787-3.995,3.996-3.995h247.743
		c2.208,0,3.995,1.787,3.995,3.995C351.633,309.89,349.846,311.677,347.638,311.677z"/>
	<path style="fill:#116FFF;" d="M227.763,343.644H99.895c-2.208,0-3.996-1.787-3.996-3.996c0-2.208,1.787-3.995,3.996-3.995h127.868
		c2.208,0,3.996,1.787,3.996,3.995C231.759,341.857,229.971,343.644,227.763,343.644z"/>
	<path style="fill:#116FFF;" d="M143.85,159.835c-8.554,0-16.811-2.24-23.874-6.485c-7.348-4.105-13.462-10.192-17.575-17.537
		c-4.234-7.141-6.501-15.445-6.501-23.928c0-26.441,21.509-47.95,47.95-47.95s47.95,21.509,47.95,47.95
		c0,8.483-2.267,16.787-6.552,24.014C176.886,150.641,161.011,159.835,143.85,159.835z M143.85,71.925
		c-22.032,0-39.959,17.927-39.959,39.959c0,7.047,1.881,13.938,5.436,19.94c3.438,6.142,8.491,11.16,14.657,14.609
		c5.927,3.559,12.76,5.409,19.866,5.409c14.29,0,27.503-7.648,34.483-19.956c3.594-6.064,5.475-12.956,5.475-20.003
		C183.808,89.852,165.881,71.925,143.85,71.925z"/>
	<path style="fill:#116FFF;" d="M122.352,153.365c-1.022,0-2.044-0.39-2.825-1.171c-1.561-1.561-1.561-4.089,0-5.65l37.481-37.484
		c1.561-1.561,4.089-1.561,5.65,0c1.561,1.561,1.561,4.089,0,5.65l-37.481,37.484C124.397,152.975,123.375,153.365,122.352,153.365z
		"/>
	<path style="fill:#116FFF;" d="M181.83,137.92c-0.999,0-1.998-0.382-2.767-1.155l-22.055-22.055c-1.561-1.561-1.561-4.09,0-5.65
		c1.561-1.561,4.089-1.561,5.65,0l21.977,21.978c1.561,1.561,1.6,4.128,0.039,5.689C183.886,137.514,182.856,137.92,181.83,137.92z"
		/>
	<path style="fill:#116FFF;" d="M105.83,137.881c-1.019,0-2.037-0.382-2.806-1.155c-1.561-1.561-1.6-4.05-0.039-5.611l18.06-18.059
		c1.561-1.562,4.09-1.562,5.65,0c1.561,1.561,1.561,4.089,0,5.65l-17.981,17.981C107.926,137.475,106.876,137.881,105.83,137.881z"
		/>
	<path style="fill:#116FFF;" d="M139.854,135.86c-1.022,0-2.045-0.39-2.825-1.17l-15.983-15.983c-1.561-1.562-1.561-4.09,0-5.65
		c1.561-1.562,4.09-1.562,5.65,0l15.983,15.983c1.561,1.561,1.561,4.089,0,5.65C141.899,135.469,140.876,135.86,139.854,135.86z"/>
	<path style="fill:#116FFF;" d="M131.862,103.893c-6.61,0-11.988-5.377-11.988-11.988s5.377-11.987,11.988-11.987
		c6.611,0,11.988,5.377,11.988,11.987S138.472,103.893,131.862,103.893z M131.862,87.909c-2.205,0-3.996,1.795-3.996,3.996
		c0,2.201,1.791,3.996,3.996,3.996s3.996-1.795,3.996-3.996S134.067,87.909,131.862,87.909z"/>
	<path style="fill:#116FFF;" d="M35.961,495.487c-2.208,0-3.996-1.787-3.996-3.995V19.979c0-2.208,1.787-3.996,3.996-3.996
		s3.996,1.788,3.996,3.996v471.513C39.957,493.7,38.17,495.487,35.961,495.487z"/>
	<path style="fill:#116FFF;" d="M379.605,495.487H35.961c-2.208,0-3.996-1.787-3.996-3.995c0-2.209,1.787-3.996,3.996-3.996h343.644
		c2.208,0,3.996,1.787,3.996,3.996C383.601,493.7,381.813,495.487,379.605,495.487z"/>
	<path style="fill:#116FFF;" d="M363.622,511.47H19.978c-2.208,0-3.996-1.787-3.996-3.995c0-2.209,1.788-3.996,3.996-3.996h343.644
		c2.209,0,3.996,1.787,3.996,3.996C367.618,509.683,365.831,511.47,363.622,511.47z"/>
	<path style="fill:#116FFF;" d="M19.978,511.47c-2.208,0-3.996-1.787-3.996-3.995V35.963c0-2.208,1.788-3.996,3.996-3.996
		c2.209,0,3.996,1.787,3.996,3.996v471.512C23.974,509.683,22.187,511.47,19.978,511.47z"/>
</g>
<g>
</g>
<g>
</g>
<g>
</g>
<g>
</g>
<g>
</g>
<g>
</g>
<g>
</g>
<g>
</g>
<g>
</g>
<g>
</g>
<g>
</g>
<g>
</g>
<g>
</g>
<g>
</g>
<g>
</g>
</svg>
